<svg width="415" height="232" viewBox="0 0 415 232" version="1.1" xmlns="http://www.w3.org/2000/svg" xmlns:xlink="http://www.w3.org/1999/xlink">
<title>Plone CLI Logo</title>
<desc>Created using Figma</desc>
<g id="Canvas" transform="translate(674 -516)">
<g id="Plone CLI Logo">
<g id="Canvas">
<g id="Group">
<g id="Vector">
<g id="Vector">
<use xlink:href="#path0_fill" transform="translate(-646.841 530.605)" fill="#0095D3"/>
</g>
</g>
<g id="Vector">
<g id="Vector">
<use xlink:href="#path1_fill" transform="translate(-628.58 548.548)" fill="#0095D3"/>
</g>
</g>
<g id="Vector">
<g id="Vector">
<use xlink:href="#path0_fill" transform="translate(-646.866 566.539)" fill="#0095D3"/>
</g>
</g>
<g id="Group">
<g id="Vector">
<g id="Vector">
<use xlink:href="#path2_fill" transform="translate(-674 516)" fill="#0095D3"/>
</g>
</g>
</g>
</g>
<g id="CLI">
<g id="Vector">
<use xlink:href="#path3_fill" transform="translate(-591.274 570.827)" fill="#0095D3"/>
</g>
<g id="Group">
<g id="Vector">
<use xlink:href="#path4_fill" transform="translate(-593.993 568.109)" fill="#0095D3"/>
</g>
</g>
</g>
</g>
</g>
</g>
<defs>
<path id="path0_fill" d="M 8.98038 17.9603C 13.9401 17.9603 17.9607 13.9397 17.9607 8.98013C 17.9607 4.02054 13.9401 0 8.98038 0C 4.02065 0 0 4.02054 0 8.98013C 0 13.9397 4.02065 17.9603 8.98038 17.9603Z"/>
<path id="path1_fill" d="M 17.9607 8.97812C 17.9607 13.9415 13.9439 17.9563 8.97833 17.9563C 4.02709 17.9563 1.43468e-14 13.9374 1.43468e-14 8.97812C 1.43468e-14 4.01477 4.02914 7.76314e-07 8.97833 7.76314e-07C 13.9479 -0.00203924 17.9607 4.0168 17.9607 8.97812Z"/>
<path id="path2_fill" d="M 41.499 -1.75733e-17C 18.5809 0.00204001 0.00204006 18.5804 1.81343e-17 41.5C 0.00204006 64.4175 18.5809 82.9958 41.499 83C 64.4191 82.9958 82.9958 64.4216 83 41.5C 82.9979 18.5804 64.421 0.00204001 41.499 -1.75733e-17ZM 64.8578 64.8561C 58.866 70.8414 50.6344 74.5297 41.499 74.5318C 32.3635 74.5297 24.1319 70.8374 18.1402 64.8561C 12.1567 58.8645 8.4683 50.6331 8.46625 41.5C 8.4683 32.3648 12.1567 24.1334 18.1423 18.1418C 24.134 12.1564 32.3656 8.46809 41.501 8.46606C 50.6365 8.46809 58.8681 12.1585 64.8597 18.1418C 70.8454 24.1355 74.5337 32.3669 74.5358 41.5C 74.5316 50.6331 70.8433 58.8645 64.8578 64.8561Z"/>
<path id="path3_fill" d="M 90.7786 129.938C 86.9724 132.855 82.1512 134.885 76.3149 136.026C 70.4786 137.168 64.2619 137.738 57.6644 137.738C 49.6713 137.738 42.1858 136.407 35.2076 133.743C 28.2294 130.953 22.1395 126.768 16.9377 121.187C 11.7359 115.607 7.61246 108.504 4.56748 99.8794C 1.52249 91.1281 2.07423e-07 80.7915 2.07423e-07 68.8692C 2.07423e-07 56.4399 1.64937 45.9127 4.9481 37.2883C 8.3737 28.537 12.8143 21.4345 18.2699 15.9807C 23.8523 10.4002 30.0692 6.34146 36.9204 3.80493C 43.7716 1.2684 50.7498 -4.14705e-07 57.8547 -4.14705e-07C 65.4672 -4.14705e-07 71.6841 0.443817 76.5052 1.33172C 81.3264 2.09271 85.4499 3.17087 88.8755 4.56592L 85.0692 18.4539C 78.9793 15.5369 70.2883 14.0782 58.9966 14.0782C 53.7948 14.0782 48.6564 15.0295 43.5813 16.9319C 38.5063 18.8344 33.9388 21.9417 29.8789 26.254C 25.9457 30.5664 22.774 36.2102 20.3633 43.186C 17.9526 50.1618 16.7474 58.7229 16.7474 68.8692C 16.7474 78.0011 17.8893 85.9914 20.173 92.8403C 22.4568 99.6892 25.5651 105.397 29.4983 109.962C 33.5582 114.528 38.2526 117.953 43.5813 120.236C 49.037 122.519 54.9367 123.66 61.2803 123.66C 66.9896 123.66 71.9377 123.09 76.1246 121.948C 80.4384 120.807 84.0543 119.348 86.9723 117.572L 90.7786 129.938ZM 193.031 135.456L 114.242 135.456L 114.242 2.28296L 130.038 2.28296L 130.038 121.377L 193.031 121.377L 193.031 135.456ZM 216.173 2.28296L 231.969 2.28296L 231.969 135.456L 216.173 135.456L 216.173 2.28296ZM 251.764 161.139L 329.41 161.139L 329.41 174.456L 251.764 174.456L 251.764 161.139Z"/>
<path id="path4_fill" d="M 93.4972 132.656L 95.1513 134.813L 96.6518 133.663L 96.0958 131.857L 93.4972 132.656ZM 37.9263 136.461L 36.9166 138.984L 36.9364 138.992L 36.9565 139L 37.9263 136.461ZM 7.2862 102.597L 4.71833 103.49L 4.72247 103.502L 7.2862 102.597ZM 7.66682 40.0061L 5.13495 39.0157L 5.12739 39.0355L 7.66682 40.0061ZM 79.2239 4.04952L 78.7312 6.72248L 78.7655 6.72873L 78.7997 6.73417L 79.2239 4.04952ZM 91.5941 7.28371L 94.2163 8.00175L 94.8536 5.6764L 92.6199 4.76675L 91.5941 7.28371ZM 87.7879 21.1717L 86.6131 23.6226L 89.5496 25.0293L 90.4101 21.8897L 87.7879 21.1717ZM 32.5976 28.9718L 30.6178 27.109L 30.6031 27.1248L 30.5885 27.1405L 32.5976 28.9718ZM 32.217 112.68L 30.1567 114.453L 30.1709 114.47L 30.185 114.486L 32.217 112.68ZM 46.3 122.953L 45.2291 125.452L 45.2503 125.46L 46.3 122.953ZM 78.8432 124.666L 78.1475 122.038L 78.1279 122.043L 78.8432 124.666ZM 89.691 120.29L 92.2896 119.491L 91.2619 116.152L 88.2775 117.968L 89.691 120.29ZM 91.8431 130.499C 88.3254 133.223 84.0771 135.003 78.5116 136.077L 79.5555 141.411C 85.6624 140.202 91.0566 137.923 95.1513 134.813L 91.8431 130.499ZM 78.5116 136.077C 72.8115 137.195 66.8561 137.741 60.383 137.738L 60.383 143.174C 67.1048 143.171 73.583 142.576 79.5555 141.411L 78.5116 136.077ZM 60.383 137.738C 52.6289 137.749 45.6307 136.505 38.8961 133.922L 36.9565 139C 44.178 141.743 52.151 143.163 60.383 143.174L 60.383 137.738ZM 38.9361 133.937C 32.2311 131.274 26.6335 127.427 21.6455 122.052L 17.6674 125.757C 23.0831 131.544 29.6654 136.067 36.9166 138.984L 38.9361 133.937ZM 21.6455 122.052C 16.6385 116.705 12.7995 110.082 9.84994 101.693L 4.72247 103.502C 7.86287 112.361 12.2706 119.943 17.6674 125.757L 21.6455 122.052ZM 9.85404 101.704C 6.88174 93.1983 5.43021 83.3104 5.43746 71.5869L 2.07423e-07 71.5869C 0.00725922 83.7075 1.60068 94.4931 4.71833 103.49L 9.85404 101.704ZM 5.43746 71.5869C 5.42925 59.3685 6.99524 49.33 10.2063 40.9766L 5.12739 39.0355C 1.74094 47.9312 0.00821078 58.9467 2.07423e-07 71.5869L 5.43746 71.5869ZM 10.1986 40.9964C 13.5215 32.4753 17.6606 25.8441 22.911 20.6202L 19.0662 16.7767C 13.4054 22.4602 8.66324 30.0342 5.13495 39.0157L 10.1986 40.9964ZM 22.911 20.6202C 28.2849 15.2278 34.0111 11.4865 40.5833 9.07121L 38.6949 3.97424C 31.5648 6.63198 24.8574 11.0079 19.0662 16.7767L 22.911 20.6202ZM 40.5833 9.07121C 47.2083 6.60752 53.7126 5.42473 60.5734 5.4356L 60.5734 -4.14704e-07C 53.2244 0.0108708 45.7723 1.36488 38.6949 3.97424L 40.5833 9.07121ZM 60.5734 5.4356C 68.089 5.43397 74.0591 5.85768 78.7312 6.72248L 79.7165 1.37657C 74.7464 0.465832 68.2826 0.00163027 60.5734 -4.14704e-07L 60.5734 5.4356ZM 78.7997 6.73417C 83.4885 7.4707 87.3099 8.46731 90.5683 9.80067L 92.6199 4.76675C 89.0271 3.31001 84.6018 2.15033 79.648 1.36488L 78.7997 6.73417ZM 88.9719 6.56567L 85.1657 20.4536L 90.4101 21.8897L 94.2163 8.00175L 88.9719 6.56567ZM 88.9626 18.7208C 82.3387 15.5477 73.175 14.0782 61.7152 14.0782L 61.7152 19.5138C 72.8392 19.5138 81.0571 20.9613 86.6131 23.6226L 88.9626 18.7208ZM 61.7152 14.0782C 56.2647 14.0896 50.6473 15.1286 45.3455 17.105L 47.2546 22.1944C 52.1026 20.3659 56.762 19.5024 61.7152 19.5138L 61.7152 14.0782ZM 45.3455 17.105C 39.9741 19.1393 34.8925 22.5925 30.6178 27.109L 34.5774 30.8346C 38.4228 26.7266 42.4761 23.965 47.2546 22.1944L 45.3455 17.105ZM 30.5885 27.1405C 26.4606 31.6926 23.0127 37.8141 20.5123 45.0163L 25.6518 46.791C 27.9725 40.0417 30.8685 34.8754 34.6067 30.803L 30.5885 27.1405ZM 20.5123 45.0163C 18.0282 52.2432 16.754 61.2506 16.7474 71.5869L 22.1849 71.5869C 22.1783 61.6303 23.3148 53.5154 25.6518 46.791L 20.5123 45.0163ZM 16.7474 71.5869C 16.7542 80.9114 17.962 89.3336 20.3125 96.4173L 25.471 94.6986C 23.2539 88.0845 22.1781 80.526 22.1849 71.5869L 16.7474 71.5869ZM 20.3125 96.4173C 22.6821 103.491 26.0474 109.659 30.1567 114.453L 34.2772 110.907C 30.5205 106.569 27.6688 101.323 25.471 94.6986L 20.3125 96.4173ZM 30.185 114.486C 34.4493 119.258 39.6261 123.032 45.2291 125.452L 47.3709 120.455C 42.3165 118.309 38.1047 115.234 34.249 110.874L 30.185 114.486ZM 45.2503 125.46C 50.9683 127.838 57.3957 129.083 63.999 129.096L 63.999 123.66C 57.9147 123.673 52.543 122.635 47.3497 120.446L 45.2503 125.46ZM 63.999 129.096C 69.8644 129.091 75.1713 128.476 79.5585 127.288L 78.1279 122.043C 74.1415 123.138 69.5522 123.664 63.999 123.66L 63.999 129.096ZM 79.539 127.293C 84.0151 126.103 87.9923 124.495 91.1045 122.611L 88.2775 117.968C 85.5533 119.637 82.2988 120.945 78.1475 122.038L 79.539 127.293ZM 87.0924 121.089L 90.8986 133.455L 96.0958 131.857L 92.2896 119.491L 87.0924 121.089ZM 195.749 138.173L 195.749 140.891L 198.468 140.891L 198.468 138.173L 195.749 138.173ZM 116.96 138.173L 114.242 138.173L 114.242 140.891L 116.96 140.891L 116.96 138.173ZM 116.96 5.00076L 116.96 2.28295L 114.242 2.28295L 114.242 5.00076L 116.96 5.00076ZM 132.756 5.00076L 135.475 5.00076L 135.475 2.28295L 132.756 2.28295L 132.756 5.00076ZM 132.756 124.095L 130.038 124.095L 130.038 126.813L 132.756 126.813L 132.756 124.095ZM 195.749 124.095L 198.468 124.095L 198.468 121.377L 195.749 121.377L 195.749 124.095ZM 195.749 135.455L 116.96 135.455L 116.96 140.891L 195.749 140.891L 195.749 135.455ZM 119.679 138.173L 119.679 5.00076L 114.242 5.00076L 114.242 138.173L 119.679 138.173ZM 116.96 7.71856L 132.756 7.71856L 132.756 2.28295L 116.96 2.28295L 116.96 7.71856ZM 130.038 5.00076L 130.038 124.095L 135.475 124.095L 135.475 5.00076L 130.038 5.00076ZM 132.756 126.813L 195.749 126.813L 195.749 121.377L 132.756 121.377L 132.756 126.813ZM 193.031 124.095L 193.031 138.173L 198.468 138.173L 198.468 124.095L 193.031 124.095ZM 218.891 5.00076L 218.891 2.28295L 216.173 2.28295L 216.173 5.00076L 218.891 5.00076ZM 234.687 5.00076L 237.406 5.00076L 237.406 2.28295L 234.687 2.28295L 234.687 5.00076ZM 234.687 138.173L 234.687 140.891L 237.406 140.891L 237.406 138.173L 234.687 138.173ZM 218.891 138.173L 216.173 138.173L 216.173 140.891L 218.891 140.891L 218.891 138.173ZM 218.891 7.71856L 234.687 7.71856L 234.687 2.28295L 218.891 2.28295L 218.891 7.71856ZM 231.969 5.00076L 231.969 138.173L 237.406 138.173L 237.406 5.00076L 231.969 5.00076ZM 234.687 135.455L 218.891 135.455L 218.891 140.891L 234.687 140.891L 234.687 135.455ZM 221.61 138.173L 221.61 5.00076L 216.173 5.00076L 216.173 138.173L 221.61 138.173ZM 254.483 163.856L 254.483 161.138L 251.764 161.138L 251.764 163.856L 254.483 163.856ZM 332.129 163.856L 334.847 163.856L 334.847 161.138L 332.129 161.138L 332.129 163.856ZM 332.129 177.174L 332.129 179.891L 334.847 179.891L 334.847 177.174L 332.129 177.174ZM 254.483 177.174L 251.764 177.174L 251.764 179.891L 254.483 179.891L 254.483 177.174ZM 254.483 166.574L 332.129 166.574L 332.129 161.138L 254.483 161.138L 254.483 166.574ZM 329.41 163.856L 329.41 177.174L 334.847 177.174L 334.847 163.856L 329.41 163.856ZM 332.129 174.456L 254.483 174.456L 254.483 179.891L 332.129 179.891L 332.129 174.456ZM 257.201 177.174L 257.201 163.856L 251.764 163.856L 251.764 177.174L 257.201 177.174Z"/>
</defs>
</svg>
