<svg width="913" height="306" viewBox="0 0 913 306" version="1.1" xmlns="http://www.w3.org/2000/svg" xmlns:xlink="http://www.w3.org/1999/xlink">
<title>Plone CLI Logo</title>
<desc>Created using Figma</desc>
<g id="Canvas" transform="translate(2501 375)">
<g id="Plone CLI Logo">
<g id="Canvas">
<g id="CLI">
<g id="Vector">
<use xlink:href="#path0_fill" transform="translate(-1712 -106)" fill="#0095D3"/>
</g>
<g id="Vector">
<use xlink:href="#path1_fill" transform="translate(-2110 -332)" fill="#0095D3"/>
</g>
</g>
<g id="Plone-logo">
<g id="Group">
<g id="Workmark">
<g id="Vector">
<use xlink:href="#path2_fill" transform="translate(-2323.84 -117.431)" fill="#0095D3"/>
</g>
<g id="Vector">
<use xlink:href="#path3_fill" transform="translate(-2370.75 -117.431)" fill="#0095D3"/>
</g>
<g id="Vector">
<use xlink:href="#path4_fill" transform="translate(-2418.77 -117.431)" fill="#0095D3"/>
</g>
<g id="Vector">
<use xlink:href="#path5_fill" transform="translate(-2445.38 -136)" fill="#0095D3"/>
</g>
<g id="Vector">
<use xlink:href="#path6_fill" transform="translate(-2500 -136)" fill="#0095D3"/>
</g>
</g>
<g id="registered">
<g id="Group">
<g id="Vector">
<use xlink:href="#path7_fill" transform="translate(-2273.19 -117.432)" fill="#0095D3"/>
</g>
</g>
<g id="Group">
<g id="Vector">
<use xlink:href="#path8_fill" transform="translate(-2270.41 -115.475)" fill="#0095D3"/>
</g>
</g>
</g>
<g id="Device">
<g id="Vector">
<use xlink:href="#path9_fill" transform="translate(-2430.64 -335.993)" fill="#0095D3"/>
</g>
<g id="Vector">
<use xlink:href="#path10_fill" transform="translate(-2383.35 -289.296)" fill="#0095D3"/>
</g>
<g id="Vector">
<use xlink:href="#path11_fill" transform="translate(-2430.72 -242.476)" fill="#0095D3"/>
</g>
<g id="Group">
<g id="Vector">
<use xlink:href="#path12_fill" transform="translate(-2501 -374)" fill="#0095D3"/>
</g>
</g>
</g>
</g>
</g>
</g>
<g id="divider">
<use xlink:href="#path13_fill" transform="translate(-2199 -375)" fill="#0095D3"/>
</g>
</g>
</g>
<defs>
<path id="path0_fill" d="M 0 0L 124 0L 124 20L 0 20L 0 0Z"/>
<path id="path1_fill" d="M 145.187 207.541C 139.1 212.201 131.389 215.442 122.054 217.265C 112.72 219.088 102.778 220 92.2257 220C 79.4419 220 67.47 217.873 56.3094 213.619C 45.1489 209.162 35.4088 202.477 27.0894 193.564C 18.7698 184.65 12.175 173.306 7.30501 159.53C 2.435 145.553 0 129.043 0 110C 0 90.1475 2.63793 73.3332 7.91376 59.558C 13.3925 45.5801 20.4946 34.2359 29.22 25.5249C 38.1482 16.6116 48.0913 10.1288 59.0488 6.07735C 70.0063 2.02593 81.1669 0 92.5301 0C 104.705 0 114.648 0.708878 122.359 2.12707C 130.07 3.34254 136.665 5.0646 142.143 7.29282L 136.056 29.4751C 126.316 24.816 112.416 22.4862 94.3563 22.4862C 86.0369 22.4862 77.8188 24.0055 69.7019 27.0442C 61.5851 30.0829 54.2801 35.0459 47.7869 41.9337C 41.4964 48.8215 36.4237 57.836 32.5682 68.9779C 28.7126 80.1199 26.785 93.7939 26.785 110C 26.785 124.586 28.6113 137.348 32.2638 148.287C 35.9163 159.227 40.8876 168.343 47.1782 175.635C 53.6714 182.928 61.1794 188.398 69.7019 192.044C 78.4275 195.691 87.8631 197.514 98.0088 197.514C 107.14 197.514 115.054 196.602 121.75 194.779C 128.649 192.956 134.433 190.626 139.1 187.79L 145.187 207.541ZM 308.724 216.354L 182.713 216.354L 182.713 3.64641L 207.976 3.64641L 207.976 193.867L 308.724 193.867L 308.724 216.354ZM 345.737 3.64641L 371 3.64641L 371 216.354L 345.737 216.354L 345.737 3.64641Z"/>
<path id="path2_fill" d="M 9.35693 26.9711C 9.35693 35.0866 13.6196 40.2192 21.3088 40.2192C 26.5876 40.2192 29.3717 38.7301 32.7094 35.3665L 38.7309 41.059C 33.9123 45.9094 29.374 48.431 21.1266 48.431C 9.35693 48.431 -1.52961e-05 42.1787 -1.52961e-05 24.1696C -1.52961e-05 8.86342 7.87603 -1.22536e-07 19.9213 -1.22536e-07C 32.5225 -1.22536e-07 39.8427 9.33149 39.8427 22.7723L 39.8427 26.9711L 9.35693 26.9711L 9.35693 26.9711ZM 29.1849 13.9043C 27.704 10.3594 24.3708 7.92959 19.9213 7.92959C 15.4764 7.92959 12.0453 10.3594 10.5644 13.9043C 9.63944 16.0519 9.4526 17.4515 9.35919 20.3448L 30.4858 20.3448C 30.3878 17.4515 30.1144 16.0496 29.1849 13.9043Z"/>
<path id="path3_fill" d="M 28.6267 47.8735L 28.6267 19.0393C 28.6267 11.6649 24.4574 8.49172 19.1786 8.49172C 13.8998 8.49172 9.44805 11.7567 9.44805 19.0393L 9.44805 47.8712L 6.67467e-06 47.8712L 6.67467e-06 0.559844L 9.26123 0.559844L 9.26123 5.31851C 12.5078 1.77131 17.0439 -1.22536e-07 21.769 -1.22536e-07C 26.5876 -1.22536e-07 30.5746 1.58546 33.3519 4.2929C 36.9652 7.83781 38.077 12.3166 38.077 17.6351L 38.077 47.8712L 28.6267 47.8735Z"/>
<path id="path4_fill" d="M 33.6366 42.8326C 30.5746 46.0081 25.9429 48.431 19.5477 48.431C 13.1571 48.431 8.6142 46.0035 5.55673 42.8326C 1.1118 38.1703 2.503e-06 32.1933 2.503e-06 24.1696C 2.503e-06 16.2378 1.1118 10.263 5.55673 5.59843C 8.6142 2.42522 13.1571 -1.22536e-07 19.5477 -1.22536e-07C 25.9429 -1.22536e-07 30.5746 2.42981 33.6366 5.59843C 38.0816 10.263 39.1934 16.2378 39.1934 24.1696C 39.1979 32.1956 38.0816 38.168 33.6366 42.8326ZM 26.4988 11.2015C 24.7376 9.42786 22.3295 8.49172 19.5477 8.49172C 16.7705 8.49172 14.4535 9.42327 12.6901 11.2015C 9.81942 14.0947 9.45034 19.0393 9.45034 24.1696C 9.45034 29.3 9.81942 34.2491 12.6901 37.1401C 14.4512 38.9091 16.7705 39.9393 19.5477 39.9393C 22.3295 39.9393 24.7354 38.9137 26.4988 37.1401C 29.374 34.2445 29.743 29.3 29.743 24.1696C 29.743 19.0393 29.374 14.0925 26.4988 11.2015Z"/>
<path id="path5_fill" d="M 12.8769 66.4424C 3.98245 66.4424 3.05922e-06 60.3759 3.05922e-06 53.3801L 3.05922e-06 2.62578e-08L 9.45033 2.62578e-08L 9.45033 52.8203C 9.45033 56.4616 10.7421 58.3247 14.5423 58.3247L 18.7116 58.3247L 18.7116 66.4424L 12.8769 66.4424Z"/>
<path id="path6_fill" d="M 25.0202 40.3133L 10.0085 40.3133L 10.0085 66.4424L 2.78111e-06 66.4424L 2.78111e-06 2.62578e-08L 25.0179 2.62578e-08C 37.897 2.62578e-08 46.1399 8.5858 46.1399 20.1567C 46.1399 31.7275 37.897 40.3133 25.0202 40.3133ZM 24.462 9.05157L 10.0062 9.05157L 10.0062 31.1677L 24.462 31.1677C 31.4107 31.1677 36.1359 27.1547 36.1359 20.1567C 36.1359 13.1563 31.4107 9.05157 24.462 9.05157Z"/>
<path id="path7_fill" d="M 4.72453 -4.17067e-07C 2.11556 -4.17067e-07 -1.86556e-06 2.12322 -1.86556e-06 4.74062C 0.00436462 7.35802 2.11556 9.48124 4.72453 9.48124C 7.34224 9.48124 9.46653 7.35802 9.46653 4.74062C 9.46653 2.12322 7.34224 -4.17067e-07 4.72453 -4.17067e-07ZM 4.72453 8.78589C 2.49545 8.78152 0.694287 6.97754 0.694287 4.74062C 0.698654 2.50807 2.49545 0.697536 4.72453 0.693163C 6.95799 0.697536 8.7679 2.50369 8.77227 4.74062C 8.76572 6.97754 6.95799 8.78152 4.72453 8.78589Z"/>
<path id="path8_fill" d="M 3.08929 5.60653L 1.91033 3.24496L 0.849287 3.24496L 0.849287 5.60653L -1.03938e-05 5.60653L -1.03938e-05 5.83894e-07L 2.17014 5.83894e-07C 3.22683 5.83894e-07 3.90801 0.684416 3.90801 1.63997C 3.90801 2.44247 3.41896 2.95633 2.78801 3.12688L 4.08047 5.6109L 3.08929 5.60653ZM 2.10464 0.765321L 0.849287 0.765321L 0.849287 2.52119L 2.10464 2.52119C 2.67447 2.52119 3.05871 2.19975 3.05871 1.64872C 3.05871 1.09769 2.67447 0.765321 2.10464 0.765321Z"/>
<path id="path9_fill" d="M 23.2624 46.74C 36.1098 46.74 46.5248 36.2769 46.5248 23.37C 46.5248 10.4631 36.1098 0 23.2624 0C 10.4149 0 0 10.4631 0 23.37C 0 36.2769 10.4149 46.74 23.2624 46.74Z"/>
<path id="path10_fill" d="M 46.5248 23.3647C 46.5248 36.2814 36.1196 46.7294 23.2571 46.7294C 10.4316 46.7294 4.5962e-06 36.2708 4.5962e-06 23.3647C 4.5962e-06 10.448 10.4369 1.2102e-06 23.2571 1.2102e-06C 36.1301 -0.00530774 46.5248 10.4533 46.5248 23.3647Z"/>
<path id="path11_fill" d="M 23.2624 46.74C 36.1098 46.74 46.5248 36.2769 46.5248 23.37C 46.5248 10.4631 36.1098 0 23.2624 0C 10.4149 0 0 10.4631 0 23.37C 0 36.2769 10.4149 46.74 23.2624 46.74Z"/>
<path id="path12_fill" d="M 107.497 -9.49314e-09C 48.1312 0.00530894 0.0052845 48.3539 -2.83483e-09 108C 0.0052845 167.641 48.1312 215.989 107.497 216C 166.869 215.989 214.989 167.651 215 108C 214.995 48.3539 166.874 0.00530894 107.497 -9.49314e-09ZM 168.005 168.782C 152.484 184.359 131.161 193.957 107.497 193.963C 83.8333 193.957 62.5104 184.348 46.9898 168.782C 31.4904 153.19 21.936 131.768 21.9307 108C 21.936 84.2265 31.4903 62.8049 46.9951 47.2125C 62.5157 31.636 83.8386 22.0375 107.503 22.0321C 131.167 22.0375 152.49 31.6413 168.01 47.2125C 183.515 62.8102 193.069 84.2318 193.075 108C 193.064 131.768 183.51 153.19 168.005 168.782Z"/>
<path id="path13_fill" d="M 0 0L 7 0L 7 306L 0 306L 0 0Z"/>
</defs>
</svg>
